<svg width="450" height="456" viewBox="0 0 450 456" fill="none" xmlns="http://www.w3.org/2000/svg">
<path d="M139.113 227.998L163.335 255.776L205.779 200.221" stroke="black" stroke-width="66.6667" stroke-linecap="round" stroke-linejoin="round"/>
<path d="M294.668 205.776H428M405.778 339.108H294.668V116.888H405.778C411.672 116.888 417.324 119.229 421.491 123.397C425.659 127.564 428 133.216 428 139.11V316.886C428 322.78 425.659 328.432 421.491 332.599C417.324 336.767 411.672 339.108 405.778 339.108Z" stroke="black" stroke-width="43.67" stroke-linecap="round" stroke-linejoin="round"/>
<path d="M294.664 405.774V50.222C294.664 44.3284 292.323 38.6761 288.155 34.5087C283.988 30.3412 278.336 28 272.442 28H50.222C44.3284 28 38.6761 30.3412 34.5087 34.5087C30.3412 38.6761 28 44.3284 28 50.222V405.774C28 411.668 30.3412 417.32 34.5087 421.487C38.6761 425.655 44.3284 427.996 50.222 427.996H272.442C278.336 427.996 283.988 425.655 288.155 421.487C292.323 417.32 294.664 411.668 294.664 405.774ZM205.776 28H116.888L127.999 72.444H194.665L205.776 28Z" stroke="black" stroke-width="55.67" stroke-linecap="round" stroke-linejoin="round"/>
</svg>
