<svg width="400" height="442" viewBox="0 0 400 442" fill="none" xmlns="http://www.w3.org/2000/svg">
<path d="M126.03 191.781H82.1953V235.62H126.03V191.781Z" fill="black"/>
<path d="M317.804 191.781H273.969V235.62H317.804V191.781Z" fill="black"/>
<path d="M253.878 191.781H210.043V235.62H253.878V191.781Z" fill="black"/>
<path d="M126.03 260.275H82.1953V304.113H126.03V260.275Z" fill="black"/>
<path d="M253.878 260.275H210.043V304.113H253.878V260.275Z" fill="black"/>
<path d="M189.956 260.275H146.121V304.113H189.956V260.275Z" fill="black"/>
<path d="M317.804 328.768H273.969V372.606H317.804V328.768Z" fill="black"/>
<path d="M253.878 328.768H210.043V372.606H253.878V328.768Z" fill="black"/>
<path d="M189.956 328.768H146.121V372.606H189.956V328.768Z" fill="black"/>
<path d="M357.897 47.4233H322.251V81.6C322.251 94.3522 311.745 104.723 298.832 104.723H252.288C239.376 104.723 228.87 94.3522 228.87 81.6V47.4233H171.067V81.2786C171.067 94.2084 160.446 104.723 147.389 104.723H101.363C88.307 104.723 77.6853 94.2084 77.6853 81.2786V47.4233H42.0389C18.8587 47.4233 0 66.1115 0 89.0814V399.442C0 422.411 18.8587 441.1 42.0389 441.1H357.897C381.113 441.1 400 422.412 400 399.442V89.0814C400 66.1124 381.113 47.4233 357.897 47.4233ZM369.864 398.633C369.864 406.007 364.909 410.96 357.535 410.96H42.4653C35.0907 410.96 30.1361 406.007 30.1361 398.633V153.428H369.864V398.633Z" fill="black"/>
<path d="M101.371 88.3122H147.369C151.264 88.3122 154.433 85.165 154.433 81.2959V17.6552C154.433 7.91998 146.447 0 136.629 0H112.111C102.294 0 94.3047 7.91912 94.3047 17.6552V81.2959C94.3055 85.165 97.4742 88.3122 101.371 88.3122Z" fill="black"/>
<path d="M252.283 88.3122H298.826C302.572 88.3122 305.619 85.2856 305.619 81.5699V17.3838C305.619 7.79937 297.755 0 288.086 0H263.023C253.356 0 245.492 7.79937 245.492 17.3838V81.5699C245.491 85.2856 248.539 88.3122 252.283 88.3122Z" fill="black"/>
</svg>
