<svg width="400" height="368" viewBox="0 0 400 368" fill="none" xmlns="http://www.w3.org/2000/svg">
<path d="M381.058 124.233C378.738 124.242 376.448 123.721 374.359 122.71L198.363 32.8852L22.366 122.101C14.5467 125.801 5.20788 122.461 1.5083 114.641C-2.19129 106.822 1.149 97.4833 8.96836 93.7837L198.363 0L387.757 93.7837C396.164 95.635 401.484 103.951 399.632 112.358C397.781 120.765 389.465 126.084 381.058 124.233ZM122.24 276.479H30.8918V367.827H122.24V276.479ZM244.037 276.479H152.689V367.827H244.037V276.479ZM365.834 276.479H274.486V367.827H365.834V276.479ZM304.935 154.682H213.587V246.03H304.935V154.682ZM183.138 154.682H91.7903V246.03H183.138V154.682Z" fill="black"/>
</svg>
